REM MD5 1281e3c3aeeebedba1871c842308b9ef
FILE "Sankyo Fever - Downtown Geki (Japan).bin" BINARY
  TRACK 01 MODE2/2352
    INDEX 01 00:00:00
  TRACK 02 AUDIO
    INDEX 00 25:04:47
    INDEX 01 25:06:47
  TRACK 03 AUDIO
    INDEX 00 25:43:32
    INDEX 01 25:45:32
  TRACK 04 AUDIO
    INDEX 00 26:16:17
    INDEX 01 26:18:17
  TRACK 05 AUDIO
    INDEX 00 26:48:70
    INDEX 01 26:50:70
  TRACK 06 AUDIO
    INDEX 00 27:21:55
    INDEX 01 27:23:55
  TRACK 07 AUDIO
    INDEX 00 27:54:40
    INDEX 01 27:56:40
  TRACK 08 AUDIO
    INDEX 00 28:27:23
    INDEX 01 28:29:23
  TRACK 09 AUDIO
    INDEX 00 29:00:07
    INDEX 01 29:02:07
  TRACK 10 AUDIO
    INDEX 00 29:32:65
    INDEX 01 29:34:65
  TRACK 11 AUDIO
    INDEX 00 30:05:50
    INDEX 01 30:07:50
  TRACK 12 AUDIO
    INDEX 00 30:38:35
    INDEX 01 30:40:35
  TRACK 13 AUDIO
    INDEX 00 30:49:57
    INDEX 01 30:51:57
  TRACK 14 AUDIO
    INDEX 00 31:23:53
    INDEX 01 31:25:53
  TRACK 15 AUDIO
    INDEX 00 31:57:50
    INDEX 01 31:59:50
  TRACK 16 AUDIO
    INDEX 00 32:31:47
    INDEX 01 32:33:47
  TRACK 17 AUDIO
    INDEX 00 33:05:44
    INDEX 01 33:07:44
  TRACK 18 AUDIO
    INDEX 00 33:39:41
    INDEX 01 33:41:41
  TRACK 19 AUDIO
    INDEX 00 34:13:38
    INDEX 01 34:15:38
  TRACK 20 AUDIO
    INDEX 00 34:47:35
    INDEX 01 34:49:35
  TRACK 21 AUDIO
    INDEX 00 35:21:32
    INDEX 01 35:23:32
  TRACK 22 AUDIO
    INDEX 00 35:55:29
    INDEX 01 35:57:29
  TRACK 23 AUDIO
    INDEX 00 36:29:25
    INDEX 01 36:31:25
  TRACK 24 AUDIO
    INDEX 00 36:40:27
    INDEX 01 36:42:27
  TRACK 25 AUDIO
    INDEX 00 37:15:32
    INDEX 01 37:17:32
  TRACK 26 AUDIO
    INDEX 00 37:32:69
    INDEX 01 37:34:69
  TRACK 27 AUDIO
    INDEX 00 38:23:16
    INDEX 01 38:25:16
  TRACK 28 AUDIO
    INDEX 00 38:32:52
    INDEX 01 38:34:52
  TRACK 29 AUDIO
    INDEX 00 39:14:06
    INDEX 01 39:16:06
  TRACK 30 AUDIO
    INDEX 00 39:36:31
    INDEX 01 39:38:31
  TRACK 31 AUDIO
    INDEX 00 40:34:35
    INDEX 01 40:36:35
  TRACK 32 AUDIO
    INDEX 00 40:53:08
    INDEX 01 40:55:08
  TRACK 33 AUDIO
    INDEX 00 44:18:16
    INDEX 01 44:20:16
  TRACK 34 AUDIO
    INDEX 00 46:30:08
    INDEX 01 46:32:08
  TRACK 35 AUDIO
    INDEX 00 48:01:29
    INDEX 01 48:03:29
  TRACK 36 AUDIO
    INDEX 00 49:27:17
    INDEX 01 49:29:17
  TRACK 37 AUDIO
    INDEX 00 49:38:64
    INDEX 01 49:40:64
  TRACK 38 AUDIO
    INDEX 00 49:50:36
    INDEX 01 49:52:36
  TRACK 39 AUDIO
    INDEX 00 50:02:07
    INDEX 01 50:04:07
  TRACK 40 AUDIO
    INDEX 00 50:13:53
    INDEX 01 50:15:53
  TRACK 41 AUDIO
    INDEX 00 50:25:24
    INDEX 01 50:27:24
  TRACK 42 AUDIO
    INDEX 00 50:36:70
    INDEX 01 50:38:70
  TRACK 43 AUDIO
    INDEX 00 50:48:42
    INDEX 01 50:50:42
  TRACK 44 AUDIO
    INDEX 00 51:00:13
    INDEX 01 51:02:13
  TRACK 45 AUDIO
    INDEX 00 51:11:59
    INDEX 01 51:13:59
  TRACK 46 AUDIO
    INDEX 00 51:23:30
    INDEX 01 51:25:30
  TRACK 47 AUDIO
    INDEX 00 51:35:01
    INDEX 01 51:37:01
  TRACK 48 AUDIO
    INDEX 00 51:46:47
    INDEX 01 51:48:47
  TRACK 49 AUDIO
    INDEX 00 51:58:18
    INDEX 01 52:00:18
  TRACK 50 AUDIO
    INDEX 00 52:09:64
    INDEX 01 52:11:64
  TRACK 51 AUDIO
    INDEX 00 52:21:35
    INDEX 01 52:23:35
  TRACK 52 AUDIO
    INDEX 00 52:33:05
    INDEX 01 52:35:05
  TRACK 53 AUDIO
    INDEX 00 52:44:50
    INDEX 01 52:46:50
  TRACK 54 AUDIO
    INDEX 00 52:56:21
    INDEX 01 52:58:21
  TRACK 55 AUDIO
    INDEX 00 53:07:67
    INDEX 01 53:09:67
  TRACK 56 AUDIO
    INDEX 00 53:19:38
    INDEX 01 53:21:38
  TRACK 57 AUDIO
    INDEX 00 53:31:09
    INDEX 01 53:33:09
  TRACK 58 AUDIO
    INDEX 00 53:42:54
    INDEX 01 53:44:54
  TRACK 59 AUDIO
    INDEX 00 53:54:25
    INDEX 01 53:56:25
  TRACK 60 AUDIO
    INDEX 00 54:05:70
    INDEX 01 54:07:70
  TRACK 61 AUDIO
    INDEX 00 54:17:41
    INDEX 01 54:19:41
  TRACK 62 AUDIO
    INDEX 00 54:29:12
    INDEX 01 54:31:12
  TRACK 63 AUDIO
    INDEX 00 54:40:57
    INDEX 01 54:42:57
  TRACK 64 AUDIO
    INDEX 00 54:52:27
    INDEX 01 54:54:27
  TRACK 65 AUDIO
    INDEX 00 55:03:72
    INDEX 01 55:05:72
  TRACK 66 AUDIO
    INDEX 00 55:15:42
    INDEX 01 55:17:42
  TRACK 67 AUDIO
    INDEX 00 55:27:31
    INDEX 01 55:29:31
  TRACK 68 AUDIO
    INDEX 00 55:39:02
    INDEX 01 55:41:02
  TRACK 69 AUDIO
    INDEX 00 55:50:48
    INDEX 01 55:52:48
  TRACK 70 AUDIO
    INDEX 00 56:02:19
    INDEX 01 56:04:19
  TRACK 71 AUDIO
    INDEX 00 56:13:65
    INDEX 01 56:15:65
  TRACK 72 AUDIO
    INDEX 00 56:25:36
    INDEX 01 56:27:36
  TRACK 73 AUDIO
    INDEX 00 56:37:07
    INDEX 01 56:39:07
  TRACK 74 AUDIO
    INDEX 00 56:48:53
    INDEX 01 56:50:53
  TRACK 75 AUDIO
    INDEX 00 57:00:24
    INDEX 01 57:02:24
  TRACK 76 AUDIO
    INDEX 00 57:11:70
    INDEX 01 57:13:70
  TRACK 77 AUDIO
    INDEX 00 57:23:41
    INDEX 01 57:25:41
  TRACK 78 AUDIO
    INDEX 00 57:35:12
    INDEX 01 57:37:12
  TRACK 79 AUDIO
    INDEX 00 57:46:58
    INDEX 01 57:48:58
  TRACK 80 AUDIO
    INDEX 00 57:58:29
    INDEX 01 58:00:29
  TRACK 81 AUDIO
    INDEX 00 58:10:00
    INDEX 01 58:12:00
  TRACK 82 AUDIO
    INDEX 00 58:21:46
    INDEX 01 58:23:46
  TRACK 83 AUDIO
    INDEX 00 58:33:17
    INDEX 01 58:35:17
  TRACK 84 AUDIO
    INDEX 00 58:44:63
    INDEX 01 58:46:63
  TRACK 85 AUDIO
    INDEX 00 58:56:33
    INDEX 01 58:58:33
  TRACK 86 AUDIO
    INDEX 00 59:08:04
    INDEX 01 59:10:04
  TRACK 87 AUDIO
    INDEX 00 59:19:50
    INDEX 01 59:21:50
  TRACK 88 AUDIO
    INDEX 00 59:31:21
    INDEX 01 59:33:21
  TRACK 89 AUDIO
    INDEX 00 59:42:66
    INDEX 01 59:44:66
  TRACK 90 AUDIO
    INDEX 00 59:54:37
    INDEX 01 59:56:37
  TRACK 91 AUDIO
    INDEX 00 60:06:07
    INDEX 01 60:08:07
  TRACK 92 AUDIO
    INDEX 00 60:17:53
    INDEX 01 60:19:53
  TRACK 93 AUDIO
    INDEX 00 60:29:24
    INDEX 01 60:31:24
  TRACK 94 AUDIO
    INDEX 00 60:40:70
    INDEX 01 60:42:70
  TRACK 95 AUDIO
    INDEX 00 60:52:41
    INDEX 01 60:54:41
  TRACK 96 AUDIO
    INDEX 00 61:04:12
    INDEX 01 61:06:12
  TRACK 97 AUDIO
    INDEX 00 61:15:57
    INDEX 01 61:17:57
  TRACK 98 AUDIO
    INDEX 00 61:27:28
    INDEX 01 61:29:28
  TRACK 99 AUDIO
    INDEX 00 61:38:73
    INDEX 01 61:40:73
REM LEADOUT 65:04:06
